# xmcd
#
# Track frame offsets:
#	150
#	12608
#	24848
#	35049
#	47320
#	57826
#	66240
#	80298
#	92991
#	105366
#	116084
#	123840
#
# Disc length: 1763 seconds
#
# Revision: 0
# Processed by: cddbd v1.5.2PL0 Copyright (c) Steve Scherf et al.
# Submitted via: audiograbber 1.83.01
#
DISCID=9206e10c
DTITLE=Various Artist - Roots of Country, vol 2 cd2
DYEAR=2014
DGENRE=Country
TTITLE0=Johnny Cash - I Walk The Line
TTITLE1=Kenny Rogers - Ruben James
TTITLE2=Willie Nelson - Healing Hands Of Time
TTITLE3=Lynn Anderson - Stand By Your Man
TTITLE4=Jim Reeves - He'll Have To Go
TTITLE5=Waylon Jennings - Abilene
TTITLE6=Elvis - Are You Lonesome Tonight?
TTITLE7=Charlie Pride - Crystal Chandeliers
TTITLE8=Johnny Cash - Give My Love to Rose
TTITLE9=George Jones - Accidentally On Purpose
TTITLE10=Dolly Parton - Puppy Love
TTITLE11=Willie Nelson - Slow Down Old World
EXTD=
EXTT0=
EXTT1=
EXTT2=
EXTT3=
EXTT4=
EXTT5=
EXTT6=
EXTT7=
EXTT8=
EXTT9=
EXTT10=
EXTT11=
PLAYORDER=
